<?xml version="1.0" encoding="UTF-8"?>
<svg xmlns="http://www.w3.org/2000/svg" width="64" height="64" viewBox="0 0 64 64" fill="none">
  <rect width="64" height="64" rx="12" fill="#0f1724"/>
  <!-- folded document -->
  <path d="M18 12h20l8 8v28a4 4 0 0 1-4 4H18a4 4 0 0 1-4-4V16a4 4 0 0 1 4-4z" fill="#0b1220"/>
  <path d="M38 12v10a4 4 0 0 0 4 4h10" fill="#111827"/>
  <!-- document inner -->
  <rect x="22" y="20" width="20" height="2" rx="1" fill="#9ca3af" opacity="0.9"/>
  <rect x="22" y="25" width="14" height="2" rx="1" fill="#9ca3af" opacity="0.85"/>
  <rect x="22" y="30" width="18" height="2" rx="1" fill="#9ca3af" opacity="0.75"/>
  <!-- accent corner fold -->
  <path d="M38 12v8a4 4 0 0 0 4 4h8" fill="#172033" opacity="0.7"/>
  <!-- subtle border -->
  <rect x="8" y="8" width="48" height="48" rx="10" fill="none" stroke="#0ea5e9" stroke-opacity="0.06"/>
</svg>
