<svg xmlns="http://www.w3.org/2000/svg" width="256" height="256" viewBox="0 0 256 256">
  <defs>
    <linearGradient id="g" x1="0" x2="1">
      <stop offset="0%" stop-color="#60E0A6" />
      <stop offset="100%" stop-color="#2ABF9F" />
    </linearGradient>
  </defs>
  <rect width="100%" height="100%" rx="32" fill="#0b1220" />
  <g transform="translate(28,28) scale(0.8)">
    <!-- simple cockatiel head simplified -->
    <circle cx="80" cy="48" r="44" fill="#ffd966" stroke="#f6c84c" stroke-width="3" />
    <circle cx="96" cy="44" r="6" fill="#2b2b2b" />
    <path d="M56 28 C44 12, 30 8, 34 32 C36 44, 46 36, 56 28" fill="#ffd966" stroke="#f6c84c" stroke-width="2"/>
    <!-- beak -->
    <path d="M64 60 L80 56 L74 48 Z" fill="#8b8b8b" />
    <!-- speech bubble -->
    <rect x="120" y="10" width="80" height="56" rx="8" fill="url(#g)" />
    <circle cx="148" cy="38" r="4" fill="#fff" />
    <circle cx="164" cy="38" r="4" fill="#fff" />
    <circle cx="180" cy="38" r="4" fill="#fff" />
    <!-- bars -->
    <rect x="8" y="110" width="18" height="36" rx="3" fill="#2abf9f" />
    <rect x="34" y="92" width="18" height="54" rx="3" fill="#60e0a6" />
    <rect x="60" y="72" width="18" height="74" rx="3" fill="#2abf9f" />
  </g>
</svg>
